<?xml version="1.0" standalone="no"?>
<!DOCTYPE svg PUBLIC "-//W3C//DTD SVG 20010904//EN"
 "http://www.w3.org/TR/2001/REC-SVG-20010904/DTD/svg10.dtd">
<svg version="1.0" xmlns="http://www.w3.org/2000/svg"
 width="32.000000pt" height="32.000000pt" viewBox="0 0 32.000000 32.000000"
 preserveAspectRatio="xMidYMid meet">

<g transform="translate(0.000000,32.000000) scale(0.100000,-0.100000)"
fill="#000000" stroke="none">
<path d="M122 229 l-52 -40 0 -59 0 -60 70 0 c77 0 68 -7 85 74 4 20 12 25 42
28 20 2 38 9 41 16 3 9 -15 12 -67 12 -39 0 -71 2 -71 5 0 3 6 14 12 25 8 13
9 23 3 29 -7 7 -28 -4 -63 -30z"/>
<path d="M30 130 c0 -33 4 -60 10 -60 6 0 10 27 10 60 0 33 -4 60 -10 60 -6 0
-10 -27 -10 -60z"/>
</g>
</svg>
