<?xml version="1.0" standalone="no"?>
<!DOCTYPE svg PUBLIC "-//W3C//DTD SVG 20010904//EN"
 "http://www.w3.org/TR/2001/REC-SVG-20010904/DTD/svg10.dtd">
<svg version="1.0" xmlns="http://www.w3.org/2000/svg"
 width="695.000000pt" height="655.000000pt" viewBox="0 0 695.000000 655.000000"
 preserveAspectRatio="xMidYMid meet">

<g transform="translate(0.000000,655.000000) scale(0.100000,-0.100000)"
fill="#000000" stroke="none">
<path d="M3045 6394 c-257 -26 -431 -59 -658 -124 -430 -123 -860 -368 -1202
-683 -345 -318 -607 -692 -782 -1117 -101 -245 -173 -517 -215 -810 -17 -127
-17 -620 1 -750 27 -196 102 -521 148 -645 102 -271 186 -445 308 -640 337
-540 851 -974 1440 -1220 164 -68 238 -93 440 -145 351 -91 666 -118 1011 -85
150 14 332 40 339 47 2 2 1 35 -3 73 -6 62 -10 70 -27 68 -11 -1 -65 -9 -120
-17 -316 -48 -706 -38 -1015 24 -160 33 -165 34 -313 79 -531 162 -1034 497
-1383 921 -139 168 -197 252 -311 448 -121 209 -220 455 -293 736 -59 228 -81
391 -87 671 -10 413 29 656 168 1070 34 98 168 382 232 490 388 652 994 1133
1683 1335 298 88 491 118 799 127 312 9 558 -17 820 -87 531 -141 1000 -411
1371 -792 60 -62 124 -130 141 -152 l31 -38 64 21 c34 12 69 25 75 29 27 17
-223 280 -427 449 -374 311 -770 514 -1241 633 -255 66 -383 81 -689 85 -146
2 -283 1 -305 -1z"/>
<path d="M3200 6087 c-30 -15 -35 -53 -25 -205 6 -91 10 -105 29 -117 16 -11
71 -17 199 -21 98 -4 180 -10 182 -15 3 -4 2 -33 -1 -66 l-6 -58 -279 0 -279
0 0 35 c0 52 -37 392 -45 413 -8 20 -64 23 -165 7 -113 -18 -531 -140 -610
-179 l-75 -36 1 -40 c1 -59 101 -259 132 -263 12 -2 66 14 120 36 115 47 243
85 253 74 4 -4 14 -33 22 -65 12 -43 12 -59 4 -62 -7 -3 -60 -20 -119 -39 -59
-19 -166 -63 -238 -97 -78 -37 -134 -59 -139 -53 -10 10 -108 181 -166 289
-46 86 -62 105 -90 105 -21 0 -119 -64 -325 -210 -111 -80 -350 -305 -350
-330 1 -31 199 -220 231 -220 12 0 59 37 117 93 127 121 191 172 201 161 31
-37 71 -94 71 -102 0 -6 -33 -38 -72 -70 -76 -62 -207 -194 -270 -271 l-36
-45 -28 19 c-16 10 -78 60 -139 110 -141 117 -194 155 -216 155 -27 0 -234
-302 -308 -450 -41 -81 -116 -251 -126 -287 -9 -32 23 -58 97 -82 35 -10 85
-29 111 -40 55 -24 90 -27 104 -8 6 6 38 73 72 147 34 75 71 150 81 168 l20
33 38 -21 c20 -12 47 -29 59 -38 l23 -17 -45 -86 c-53 -104 -129 -287 -145
-352 -7 -26 -16 -49 -20 -52 -4 -2 -96 21 -206 52 -253 71 -249 71 -264 43
-45 -84 -95 -394 -106 -660 -9 -198 -13 -193 159 -191 137 2 172 9 181 38 2
10 8 93 12 186 4 92 11 170 16 173 5 3 35 3 66 -1 l58 -6 -1 -269 0 -268 -55
-6 c-30 -3 -116 -10 -190 -16 -74 -6 -153 -16 -175 -23 l-40 -12 2 -91 c2 -98
15 -156 95 -434 60 -207 108 -317 142 -326 29 -7 273 106 282 131 4 9 -12 62
-34 118 -22 56 -51 137 -63 180 -25 88 -25 89 41 106 74 20 69 25 104 -89 36
-115 70 -199 121 -300 52 -103 52 -107 11 -124 -37 -16 -263 -141 -329 -183
-65 -41 -55 -67 131 -328 47 -66 88 -122 92 -125 3 -3 18 -21 34 -40 69 -86
220 -230 241 -230 31 0 215 187 215 219 0 15 -33 59 -101 134 -136 150 -154
174 -141 190 6 7 31 27 55 44 l44 32 89 -101 c49 -55 133 -141 187 -191 53
-49 97 -95 97 -101 0 -6 -53 -74 -116 -151 -156 -188 -169 -208 -154 -235 17
-32 165 -138 316 -225 171 -99 409 -208 435 -200 23 7 44 50 89 178 40 111 36
131 -28 159 -72 30 -275 129 -289 140 -9 7 -4 23 19 61 16 29 33 55 37 59 4 5
37 -8 74 -28 93 -49 249 -116 345 -148 45 -15 82 -30 82 -33 0 -6 -81 -289
-105 -367 -18 -59 -19 -80 -2 -94 14 -12 225 -60 382 -87 123 -22 443 -32 474
-16 23 13 23 15 19 157 -3 118 -6 147 -20 160 -14 14 -46 19 -160 25 -79 4
-165 8 -192 8 l-49 1 7 67 c4 37 8 69 10 70 2 2 68 -1 146 -6 90 -6 189 -6
268 0 69 5 127 7 130 4 3 -3 16 -105 28 -226 25 -255 23 -252 114 -243 30 3
79 10 108 15 55 11 61 20 45 78 -6 22 -9 23 -68 18 l-62 -6 -6 37 c-3 20 -15
101 -26 180 -39 265 -34 257 -166 245 -111 -10 -380 -7 -481 6 -122 15 -117
21 -151 -181 -16 -98 -16 -109 -2 -124 12 -11 61 -19 200 -30 101 -7 190 -16
197 -19 18 -7 13 -144 -5 -146 -30 -3 -44 -3 -159 4 -133 8 -369 40 -422 58
-41 13 -42 -1 24 267 53 214 53 218 -37 241 -89 23 -368 139 -460 192 -48 27
-96 49 -107 49 -23 0 -37 -18 -104 -130 -68 -114 -70 -118 -58 -139 9 -17 165
-107 295 -170 28 -13 52 -25 53 -26 8 -7 -43 -127 -56 -133 -37 -14 -543 276
-542 310 1 7 55 85 120 173 66 88 123 170 126 182 11 43 -7 68 -117 163 -60
52 -151 142 -202 199 -51 58 -106 120 -123 139 -24 28 -36 34 -55 29 -43 -12
-229 -156 -229 -178 0 -11 56 -89 124 -173 l124 -153 -52 -52 -53 -52 -64 69
c-89 93 -162 186 -253 319 l-77 113 46 27 c221 133 350 220 353 240 2 11 -22
71 -52 132 -66 130 -125 276 -155 381 -44 152 -43 151 -176 120 -206 -48 -199
-37 -151 -199 19 -65 46 -149 60 -187 14 -37 24 -69 23 -70 -1 -1 -33 -16 -70
-32 l-68 -31 -10 27 c-75 195 -142 444 -151 556 l-3 40 217 30 c127 18 223 36
230 44 10 10 13 77 13 290 0 152 4 302 9 333 12 82 2 89 -158 113 -90 14 -133
16 -145 9 -22 -14 -29 -61 -38 -248 l-8 -160 -75 0 -75 0 -3 69 c-3 73 19 291
44 436 18 108 22 120 40 120 7 0 107 -22 221 -50 241 -58 243 -57 262 31 17
77 136 362 193 463 67 116 66 119 -76 208 -60 37 -116 68 -124 68 -27 0 -67
-57 -135 -192 -37 -73 -67 -139 -67 -145 0 -7 -5 -15 -11 -19 -15 -9 -139 45
-139 60 0 27 153 318 225 429 l77 118 32 -19 c17 -10 102 -71 189 -135 87 -65
164 -117 170 -117 6 0 43 35 82 77 136 151 261 276 328 330 37 30 74 65 83 79
16 23 15 26 -20 77 -92 133 -118 167 -135 176 -30 17 -78 -15 -252 -171 -42
-37 -82 -68 -90 -68 -8 1 -34 23 -58 51 l-44 50 61 59 c73 71 421 332 436 327
6 -2 45 -59 86 -128 121 -200 160 -260 174 -265 8 -3 68 22 135 55 160 80 272
126 395 161 136 40 140 44 115 159 -30 135 -42 173 -64 187 -17 10 -40 6 -160
-31 -77 -23 -157 -50 -179 -59 -21 -9 -44 -16 -50 -16 -9 0 -26 33 -63 127
-11 28 265 119 502 164 54 10 103 15 107 11 4 -4 21 -101 38 -215 16 -115 34
-217 40 -227 10 -19 19 -20 228 -13 148 4 259 2 346 -7 150 -14 151 -14 166
73 6 31 14 83 20 115 24 136 24 136 -265 150 l-140 7 0 75 0 75 130 -1 c188
-2 495 -50 495 -78 0 -6 -23 -107 -52 -225 l-51 -214 25 -22 c14 -12 44 -25
67 -29 22 -3 75 -21 118 -39 43 -19 125 -53 183 -78 57 -24 132 -61 167 -81
68 -42 102 -47 125 -20 8 9 43 63 78 120 53 87 61 107 52 125 -6 14 -68 52
-177 107 -91 47 -168 88 -171 91 -3 6 41 127 50 136 8 8 189 -78 306 -147 155
-91 240 -149 240 -165 0 -7 -29 -52 -65 -101 -163 -224 -196 -274 -191 -292 4
-10 43 -51 87 -91 86 -76 87 -77 155 -50 l28 10 -72 72 c-40 40 -72 76 -72 80
0 5 42 59 93 120 215 259 212 249 104 330 -112 84 -420 267 -450 267 -3 0 -47
20 -99 45 -99 48 -128 54 -151 30 -27 -27 -103 -254 -94 -279 3 -8 83 -52 177
-97 102 -49 170 -88 170 -96 0 -16 -47 -100 -60 -108 -5 -3 -69 23 -142 59
-73 35 -180 81 -238 101 -58 21 -108 41 -113 45 -4 3 20 101 53 216 33 115 58
219 55 231 -6 27 -25 33 -245 77 -243 49 -555 71 -610 43z"/>
<path d="M3035 5329 c-282 -36 -592 -144 -823 -287 -405 -251 -714 -635 -866
-1071 -84 -241 -116 -434 -116 -696 1 -420 114 -790 352 -1147 312 -468 814
-784 1403 -884 124 -21 438 -24 575 -5 316 43 652 176 911 360 107 76 259 207
259 223 0 6 -11 26 -26 45 l-25 33 -97 -86 c-221 -195 -519 -357 -779 -423
-346 -89 -684 -90 -1018 -5 -497 126 -928 455 -1202 919 -140 237 -232 551
-254 867 -24 344 36 644 191 964 107 224 203 358 385 540 310 310 649 479
1110 550 108 17 415 24 478 11 l37 -8 0 49 0 49 -46 7 c-65 9 -365 5 -449 -5z"/>
<path d="M5088 5242 c-47 -49 -93 -101 -103 -116 -18 -26 -17 -27 12 -63 44
-55 55 -59 108 -42 l47 14 -22 28 -23 28 39 41 c66 67 72 68 120 14 23 -25 48
-46 55 -46 12 0 79 21 88 27 3 2 -40 49 -94 103 -64 64 -107 100 -121 100 -14
0 -52 -32 -106 -88z"/>
<path d="M3223 5133 c-9 -3 -13 -32 -13 -94 0 -122 2 -124 156 -133 65 -4 120
-8 122 -10 1 -2 0 -21 -4 -42 l-6 -39 -183 0 -183 0 -12 139 c-16 173 -19 177
-113 164 -79 -10 -316 -77 -404 -114 -34 -14 -64 -33 -67 -41 -7 -16 64 -176
83 -187 6 -4 52 9 101 29 50 20 106 39 125 42 32 5 34 4 45 -37 6 -23 10 -43
8 -45 -2 -2 -35 -12 -73 -24 -39 -11 -113 -41 -164 -66 -52 -25 -97 -42 -102
-38 -4 4 -35 60 -68 123 -76 142 -81 148 -117 131 -103 -46 -424 -313 -424
-352 0 -17 131 -139 150 -139 8 0 38 22 65 48 81 77 125 112 139 112 8 0 23
-14 34 -31 l19 -31 -126 -124 c-109 -108 -129 -124 -146 -115 -11 5 -58 42
-105 81 -112 95 -126 101 -151 70 -89 -115 -224 -352 -250 -439 -10 -35 -10
-44 2 -55 21 -20 159 -67 178 -61 10 3 40 54 68 115 29 61 58 110 65 110 7 0
28 -9 45 -20 l33 -20 -44 -87 c-24 -49 -54 -119 -66 -158 -13 -38 -27 -74 -31
-79 -4 -4 -71 10 -149 33 -104 31 -145 39 -155 31 -49 -41 -101 -526 -60 -560
18 -15 183 -5 200 11 6 6 13 61 16 124 3 63 8 117 11 121 4 3 24 3 45 0 l38
-7 -2 -172 c-2 -95 -3 -174 -3 -177 0 -3 -8 -6 -17 -7 -101 -8 -255 -24 -267
-29 -20 -8 -23 -28 -14 -99 9 -72 91 -363 119 -422 26 -54 44 -55 144 -6 84
42 86 45 54 125 -12 29 -30 79 -40 111 l-18 59 34 14 c19 8 40 14 47 14 7 0
25 -38 41 -88 15 -48 45 -122 66 -165 25 -52 34 -80 27 -86 -6 -4 -64 -36
-129 -72 -64 -35 -120 -72 -123 -81 -3 -10 6 -38 19 -63 47 -83 176 -250 250
-324 63 -62 77 -71 93 -63 26 14 134 128 134 141 0 6 -38 52 -85 102 -47 50
-85 95 -85 99 0 5 15 21 34 35 l34 26 125 -128 c103 -104 124 -130 116 -144
-5 -10 -45 -61 -89 -114 -44 -53 -80 -105 -80 -115 0 -34 208 -170 377 -248
98 -45 115 -49 131 -29 15 17 62 146 62 168 0 15 -28 33 -115 75 -63 31 -115
58 -115 60 0 6 25 52 38 72 6 9 26 3 83 -27 41 -21 114 -53 162 -71 48 -19 87
-37 87 -42 0 -5 -16 -64 -35 -131 -36 -126 -42 -162 -25 -172 5 -3 62 -17 127
-30 149 -31 377 -51 416 -36 27 10 27 12 27 99 0 125 0 125 -146 130 -66 2
-122 7 -126 11 -3 3 -3 24 0 45 l7 39 180 -1 180 -2 13 -127 c16 -160 18 -169
38 -177 39 -15 397 73 494 122 65 34 66 38 15 146 -41 86 -49 90 -125 55 -42
-19 -157 -59 -172 -59 -5 0 -21 67 -19 86 0 3 39 19 85 35 47 16 118 45 157
64 39 20 76 34 83 32 6 -3 42 -62 80 -131 57 -103 73 -126 91 -126 45 0 415
286 415 321 0 15 -112 164 -126 167 -8 2 -52 -33 -98 -77 -47 -45 -89 -81 -95
-81 -5 0 -22 16 -37 35 l-26 35 53 47 c71 62 139 131 139 141 0 5 -6 17 -14
27 -13 18 -18 16 -87 -50 -41 -39 -95 -88 -121 -110 -27 -21 -48 -44 -48 -51
0 -24 101 -154 119 -154 15 0 106 62 131 89 3 3 24 23 46 44 l41 38 34 -42 33
-42 -44 -40 c-25 -21 -99 -79 -165 -129 -139 -103 -113 -110 -215 57 -35 59
-70 110 -78 112 -7 3 -66 -19 -130 -50 -64 -30 -157 -67 -205 -82 -50 -15 -91
-33 -94 -42 -8 -21 27 -171 44 -185 10 -8 39 -3 121 21 161 49 146 49 165 0 9
-24 14 -46 9 -50 -22 -23 -384 -120 -397 -108 -3 3 -14 68 -26 145 -11 76 -25
144 -31 151 -7 9 -48 11 -156 7 -81 -3 -180 -2 -220 3 -50 7 -78 6 -88 -1 -16
-12 -41 -163 -32 -188 5 -12 27 -17 90 -22 46 -4 104 -9 131 -12 l47 -6 0 -49
0 -49 -63 0 c-66 0 -270 24 -322 38 -16 5 -30 13 -30 18 0 5 15 71 34 147 39
158 40 154 -49 182 -84 27 -240 94 -280 121 -61 42 -79 34 -132 -53 -36 -58
-45 -80 -38 -94 6 -9 56 -41 112 -69 57 -29 106 -55 110 -59 10 -9 -22 -91
-35 -91 -38 0 -356 182 -357 204 0 5 31 50 68 100 85 113 102 138 102 150 0 6
-51 60 -113 121 -62 60 -132 134 -156 163 -24 28 -50 52 -58 52 -16 0 -54 -24
-120 -78 -50 -40 -51 -38 41 -150 95 -116 91 -103 50 -143 l-36 -34 -55 60
c-65 71 -205 264 -198 274 2 4 60 42 129 85 80 50 126 84 126 95 0 9 -22 62
-49 118 -28 56 -64 147 -81 202 -17 55 -37 102 -43 104 -7 2 -25 0 -42 -4 -16
-4 -55 -13 -87 -19 -34 -7 -59 -17 -62 -27 -4 -8 10 -69 29 -135 20 -65 33
-123 30 -128 -7 -11 -83 -35 -89 -29 -3 2 -20 56 -40 120 -39 129 -66 262 -57
277 3 5 67 17 141 27 74 10 141 22 147 27 9 7 12 57 10 186 -1 98 2 195 6 217
4 22 3 46 -1 53 -13 19 -167 46 -191 33 -20 -11 -23 -33 -35 -211 l-3 -55 -49
0 -49 0 -3 49 c-6 89 37 366 56 366 4 0 70 -16 147 -35 138 -34 140 -34 156
-15 9 11 20 36 23 56 8 42 83 219 120 284 40 71 36 82 -47 134 -41 25 -80 46
-89 46 -14 0 -104 -150 -127 -212 l-10 -27 -41 18 c-22 10 -43 21 -46 24 -10
9 86 200 145 290 l51 78 93 -65 c50 -36 108 -77 128 -91 l37 -26 167 167 c160
160 167 169 154 190 -57 89 -94 134 -110 134 -11 0 -62 -36 -114 -80 -52 -44
-100 -77 -107 -74 -7 3 -23 18 -36 34 l-22 28 49 47 c27 26 96 81 153 122 57
42 108 80 114 85 8 6 28 -17 62 -74 101 -166 116 -188 126 -188 6 0 65 27 131
60 66 33 159 72 208 86 78 23 87 28 87 49 0 45 -31 160 -46 172 -16 11 -89 -5
-212 -47 l-53 -19 -20 46 c-16 37 -17 48 -7 55 52 33 376 114 392 98 5 -5 17
-64 27 -131 10 -68 20 -132 23 -144 6 -22 9 -22 203 -23 109 0 214 -2 233 -4
l35 -3 3 106 3 106 -38 7 c-21 3 -65 6 -98 6 -99 0 -105 4 -105 63 l0 50 106
-7 c59 -4 111 -8 118 -9 6 -1 11 11 11 28 0 27 -4 30 -40 37 -45 8 -244 9
-262 1z"/>
<path d="M4668 4109 c-76 -91 -236 -213 -421 -321 l-47 -27 22 -37 c11 -19 26
-38 33 -40 13 -5 130 58 209 114 72 49 142 107 203 165 l52 50 29 -24 c138
-113 196 -158 254 -195 78 -51 162 -94 181 -94 17 0 60 76 52 91 -4 6 -27 19
-52 30 -94 40 -260 149 -363 237 -28 24 -33 33 -22 43 18 19 15 28 -10 38 -69
25 -74 24 -120 -30z"/>
<path d="M3283 4128 c-6 -13 -23 -70 -37 -127 -27 -102 -58 -177 -99 -235
l-20 -29 37 -34 c29 -27 40 -32 51 -23 8 7 37 59 66 116 l52 104 99 0 c115 0
110 8 67 -107 -13 -34 -21 -65 -17 -68 3 -4 24 -9 46 -12 39 -5 41 -4 60 33
32 65 64 171 60 206 l-3 33 -142 3 c-79 1 -143 6 -143 10 0 4 7 32 15 62 17
63 11 74 -46 84 -30 5 -37 3 -46 -16z"/>
<path d="M6228 4113 l-3 -38 -185 -3 c-192 -3 -200 -5 -196 -47 5 -43 11 -45
154 -45 l137 -1 -36 -32 c-53 -46 -153 -103 -236 -134 -47 -18 -73 -33 -73
-43 1 -17 44 -70 59 -70 43 0 249 121 324 190 24 22 47 37 50 33 4 -3 7 -51 7
-105 l0 -98 50 0 50 0 0 105 c0 58 2 105 5 105 3 0 18 -12 33 -26 55 -52 152
-115 245 -159 52 -25 99 -45 105 -45 6 0 22 19 36 42 29 49 30 48 -64 79 -84
28 -151 62 -224 113 l-59 41 149 5 149 5 3 43 3 42 -190 0 -190 0 -3 38 c-3
37 -4 37 -50 40 l-47 3 -3 -38z"/>
<path d="M2702 4092 l-22 -3 2 -422 3 -422 220 0 220 0 0 45 0 45 -172 0 -173
0 0 327 0 328 178 2 177 3 3 48 3 47 -173 2 c-95 1 -189 2 -208 2 -19 1 -45 0
-58 -2z"/>
<path d="M3043 3938 c-5 -7 -20 -42 -32 -78 -13 -36 -27 -69 -31 -74 -5 -4
-32 26 -61 68 -29 42 -59 76 -65 76 -7 0 -25 -10 -40 -23 l-26 -23 66 -101
c36 -55 66 -106 66 -113 0 -7 -30 -64 -66 -127 -70 -119 -71 -128 -23 -154 18
-9 49 -3 49 11 0 12 94 160 101 160 3 0 23 -36 45 -80 21 -44 43 -80 48 -80
14 0 66 51 66 65 0 12 -58 128 -87 174 -18 27 -15 38 31 156 43 109 44 128 11
143 -33 15 -40 15 -52 0z"/>
<path d="M4700 3853 c0 -10 -1 -144 -3 -298 l-2 -280 -97 -3 -98 -3 -2 218 -3
218 -36 3 c-21 2 -40 -2 -47 -11 -8 -9 -12 -83 -14 -218 l-3 -204 -77 -3 -78
-3 0 -50 0 -49 483 2 482 3 3 48 3 47 -205 0 -206 0 0 125 0 125 163 2 162 3
0 45 0 45 -164 5 -164 5 2 96 c1 53 -1 108 -5 123 -5 23 -11 26 -50 26 -35 0
-44 -4 -44 -17z"/>
<path d="M3355 3753 c-17 -207 -66 -364 -150 -473 -25 -32 -45 -62 -45 -67 0
-5 13 -24 29 -43 l29 -35 27 25 c50 46 155 228 155 268 0 24 20 1 45 -51 47
-101 142 -227 170 -227 5 0 23 16 38 35 l28 36 -60 65 c-61 67 -128 182 -162
281 -16 49 -18 72 -13 160 l7 103 -46 0 -45 0 -7 -77z"/>
<path d="M5917 3693 c-10 -9 -8 -355 1 -371 7 -9 87 -12 368 -10 l359 3 0 190
0 190 -361 3 c-198 1 -363 -1 -367 -5z m631 -110 l-3 -28 -267 -3 -268 -2 0
30 0 30 271 0 270 0 -3 -27z m-4 -138 c3 -8 3 -22 0 -30 -5 -13 -45 -15 -270
-15 l-264 0 0 30 0 30 264 0 c225 0 265 -2 270 -15z"/>
<path d="M5790 3215 l0 -45 488 2 487 3 0 40 0 40 -487 3 -488 2 0 -45z"/>
<path d="M4610 3032 c-47 -23 -75 -76 -66 -125 9 -46 31 -61 126 -88 110 -30
130 -43 130 -84 0 -51 -31 -75 -98 -75 -66 0 -110 23 -120 65 -9 33 -39 46
-48 20 -10 -25 22 -83 57 -104 70 -43 178 -34 231 19 22 23 28 37 28 72 0 75
-20 92 -155 130 -38 11 -78 27 -87 35 -25 23 -22 60 7 88 19 20 34 25 75 25
41 0 56 -5 75 -25 14 -13 25 -31 25 -40 0 -9 9 -15 26 -15 22 0 24 3 19 23
-13 41 -36 68 -70 83 -46 19 -113 18 -155 -4z"/>
<path d="M2684 3027 c-2 -7 -3 -100 -2 -207 l3 -195 148 -3 147 -3 0 25 0 25
-122 3 -123 3 -3 40 c-2 21 -1 54 3 72 l6 33 109 0 c103 0 110 1 110 20 0 18
-8 20 -112 22 l-113 3 0 65 0 65 118 3 c109 2 117 4 117 22 0 19 -7 20 -140
20 -105 0 -142 -3 -146 -13z"/>
<path d="M6540 2829 c0 -195 1 -210 18 -207 14 3 18 18 22 108 6 136 20 160
89 160 52 0 61 -24 61 -153 0 -110 1 -117 20 -117 18 0 20 7 21 88 2 182 -5
206 -65 218 -36 6 -106 -11 -106 -27 0 -5 -4 -9 -10 -9 -6 0 -10 32 -10 75 0
68 -2 75 -20 75 -19 0 -20 -7 -20 -211z"/>
<path d="M3650 2905 c-28 -30 -40 -32 -40 -5 0 13 -7 20 -20 20 -20 0 -20 -5
-18 -147 3 -140 4 -148 23 -148 18 0 20 8 25 106 5 116 13 134 64 147 21 6 32
15 34 30 5 31 -38 29 -68 -3z"/>
<path d="M3925 2920 c-56 -23 -90 -99 -78 -175 13 -88 52 -125 132 -125 57 0
100 28 121 80 16 39 8 142 -15 176 -29 44 -108 66 -160 44z m102 -45 c42 -29
49 -146 12 -191 -38 -46 -118 -30 -138 28 -24 68 -4 161 36 171 36 9 69 7 90
-8z"/>
<path d="M5081 2912 c-87 -44 -97 -207 -16 -270 41 -33 123 -31 164 4 34 28
42 64 13 64 -9 0 -23 -9 -30 -20 -19 -31 -59 -43 -99 -29 -37 12 -53 34 -53
73 l0 26 105 0 105 0 0 44 c0 96 -100 154 -189 108z m113 -44 c25 -23 44 -68
29 -68 -4 -1 -43 -2 -86 -3 -72 -2 -77 -1 -77 19 0 12 9 33 21 48 27 34 77 35
113 4z"/>
<path d="M5495 2916 c-25 -11 -55 -50 -55 -71 0 -15 36 -1 56 20 41 45 134 26
134 -27 0 -25 -24 -38 -80 -45 -73 -9 -114 -38 -118 -87 -5 -57 26 -86 93 -86
30 0 60 6 73 16 21 15 25 15 41 0 21 -19 57 -21 67 -4 4 7 -2 18 -14 26 -20
13 -22 23 -22 108 0 51 -4 104 -9 117 -16 43 -104 60 -166 33z m135 -176 c0
-36 -35 -76 -76 -86 -52 -13 -101 35 -75 75 8 12 95 37 139 40 7 1 12 -11 12
-29z"/>
<path d="M5938 2905 c-33 -30 -38 -31 -38 -5 0 13 -7 20 -20 20 -20 0 -20 -5
-18 -147 3 -140 4 -148 23 -148 19 0 20 8 25 113 5 121 8 127 63 139 20 4 27
11 27 29 0 32 -27 31 -62 -1z"/>
<path d="M6200 2912 c-41 -20 -62 -58 -68 -123 -9 -100 42 -169 127 -169 54 0
96 25 112 68 18 46 -26 55 -46 9 -23 -51 -92 -53 -129 -4 -26 35 -28 122 -3
160 31 47 108 48 129 2 6 -14 19 -25 30 -25 41 0 6 72 -44 89 -43 15 -68 14
-108 -7z"/>
<path d="M3150 2811 c0 -159 17 -190 101 -191 31 0 54 6 72 20 l25 20 5 -21
c3 -12 12 -19 19 -17 10 4 14 41 16 151 2 139 2 147 -17 147 -17 0 -19 -10
-23 -102 -4 -113 -15 -140 -62 -159 -23 -10 -34 -10 -55 2 -26 14 -26 17 -29
137 l-3 122 -24 0 -25 0 0 -109z"/>
</g>
</svg>
